<?xml version="1.0" encoding="UTF-8" standalone="no"?>
<!-- Created with Inkscape (http://www.inkscape.org/) -->

<svg
   xmlns:dc="http://purl.org/dc/elements/1.1/"
   xmlns:cc="http://creativecommons.org/ns#"
   xmlns:rdf="http://www.w3.org/1999/02/22-rdf-syntax-ns#"
   xmlns:svg="http://www.w3.org/2000/svg"
   xmlns="http://www.w3.org/2000/svg"
   xmlns:sodipodi="http://sodipodi.sourceforge.net/DTD/sodipodi-0.dtd"
   xmlns:inkscape="http://www.inkscape.org/namespaces/inkscape"
   width="675"
   height="675"
   viewBox="0 0 178.59375 178.59376"
   version="1.1"
   id="svg8"
   inkscape:export-filename="/home/nathan/git/nhportfolio/sections/static/sections/images/logo.png"
   inkscape:export-xdpi="72"
   inkscape:export-ydpi="72"
   inkscape:version="0.92.2 5c3e80d, 2017-08-06"
   sodipodi:docname="logo.svg">
  <defs
     id="defs2" />
  <sodipodi:namedview
     id="base"
     pagecolor="#000000"
     bordercolor="#666666"
     borderopacity="1.0"
     inkscape:pageopacity="0"
     inkscape:pageshadow="2"
     inkscape:zoom="0.79606107"
     inkscape:cx="75.89462"
     inkscape:cy="449.92881"
     inkscape:document-units="mm"
     inkscape:current-layer="layer1"
     showgrid="false"
     units="px"
     inkscape:window-width="1916"
     inkscape:window-height="1047"
     inkscape:window-x="0"
     inkscape:window-y="31"
     inkscape:window-maximized="0" />
  <metadata
     id="metadata5">
    <rdf:RDF>
      <cc:Work
         rdf:about="">
        <dc:format>image/svg+xml</dc:format>
        <dc:type
           rdf:resource="http://purl.org/dc/dcmitype/StillImage" />
        <dc:title />
      </cc:Work>
    </rdf:RDF>
  </metadata>
  <g
     inkscape:label="Layer 1"
     inkscape:groupmode="layer"
     id="layer1"
     transform="translate(0,-118.40623)">
    <text
       xml:space="preserve"
       style="font-style:normal;font-variant:normal;font-weight:normal;font-stretch:normal;font-size:103.91555023px;line-height:1.25;font-family:Pacifico;-inkscape-font-specification:Pacifico;letter-spacing:0px;word-spacing:0px;fill:#ffffff;fill-opacity:1;stroke:none;stroke-width:2.59788871"
       x="32.26104"
       y="254.98402"
       id="logo-text"
       inkscape:label="#text14"><tspan
         sodipodi:role="line"
         id="tspan12"
         x="32.26104"
         y="254.98402"
         style="font-style:normal;font-variant:normal;font-weight:normal;font-stretch:normal;font-family:Pacifico;-inkscape-font-specification:Pacifico;fill:#ffffff;stroke-width:2.59788871">nh</tspan></text>
    <path
       style="fill:#ffffff;stroke:none;stroke-width:0.26458332"
       id="path39"
       d="m -211.68872,50.070547 c -0.48718,2.56758 -0.84232,5.15796 -1.10739,7.75718 -0.13147,2.03746 -0.44776,4.239351 0.25996,6.218001 0.11848,0.33127 0.30169,0.63569 0.45254,0.95353 0.21488,0.29004 0.39862,0.60598 0.64462,0.87012 1.15953,1.24501 2.84763,1.52818 4.48183,1.38396 0.54583,-0.0482 1.08023,-0.1847 1.62034,-0.27705 0.60462,-0.19073 1.22051,-0.34883 1.81385,-0.57218 0.69408,-0.26129 1.37467,-0.55948 2.04352,-0.8799 0.75925,-0.36374 2.96273,-1.59905 2.23772,-1.17111 -16.32195,9.63415 -7.91693,4.64672 -5.3287,2.81055 0.86975,-0.61703 1.69913,-1.28908 2.54869,-1.93361 4.20723,-3.449741 7.73086,-7.652371 10.71268,-12.189571 0.62025,-0.94379 1.19119,-1.91908 1.7868,-2.87861 3.81102,-6.380941 6.60562,-13.280941 9.14464,-20.244051 1.86677,-5.50805 3.51917,-11.15979 4.02615,-16.97913 0.0859,-0.98609 0.0969,-1.97728 0.14537,-2.96592 0.0949,-5.89387 -1.08929,-11.69045 -2.40834,-17.40276 -1.53788,-6.10877 -3.81372,-11.99465 -6.16495,-17.82717 -1.61457,-4.00804 -3.58496,-7.86986 -5.87424,-11.53469 -1.32404,-2.11962 -2.22427,-3.33649 -3.65963,-5.37173 -2.44544,-3.39055 -5.22712,-6.54012 -8.4274,-9.23858 -2.14262,-1.80663 -2.76033,-2.13954 -5.07865,-3.71784 -3.67235,-2.35618 -7.60642,-4.2809 -11.77677,-5.57894 -2.89245,-0.90029 -3.72649,-0.99422 -6.69195,-1.60217 -5.8828,-1.01808 -11.85136,-0.99498 -17.75949,-0.2182 -1.24021,0.16306 -2.47093,0.39164 -3.70639,0.58747 -5.18808,0.91133 -10.2832,2.2891 -15.25221,4.03164 -2.75114,0.96477 -4.96838,1.87411 -7.67746,2.9471 -7.39739,2.993 -14.47414,6.70663 -21.47664,10.51566 -1.1452,0.65756 -4.58638,2.62041 -3.4356,1.97267 2.20247,-1.23969 4.34203,-2.59482 6.59071,-3.74858 1.1221,-0.57573 -2.14563,1.32649 -3.20471,2.01128 -3.19851,2.06811 -6.25442,4.30235 -9.2955,6.59226 -4.73956,3.66289 -9.34435,7.56935 -13.2501,12.13293 -0.73417,0.85782 -1.41348,1.76112 -2.12023,2.64168 -3.75647,5.17846 -6.31127,11.11239 -8.23495,17.18752 -0.4211,1.32988 -0.77908,2.67894 -1.16862,4.0184 -1.36352,5.16594 -1.93353,10.50452 -1.79528,15.84246 0.0913,3.52471 0.32766,4.86883 0.73446,8.409 0.93391,6.47755 2.69343,12.80527 5.25786,18.8269 1.66033,3.89869 2.51107,5.29935 4.49943,9.029301 4.08118,7.19581 9.12475,13.849331 15.11472,19.570131 1.25113,1.19491 2.58522,2.29981 3.87784,3.44972 3.67103,2.74289 4.84994,3.81392 8.88806,6.05777 5.00835,2.78298 10.47335,4.86312 16.02327,6.26921 1.95316,0.49484 3.94611,0.81674 5.91916,1.22511 2.01305,0.26404 4.01797,0.59995 6.03915,0.79213 8.31661,0.79076 17.14976,0.43313 25.41138,-0.76395 2.21193,-0.32051 4.40139,-0.7805 6.60208,-1.17075 6.94875,-1.39667 13.58637,-3.87432 20.21611,-6.30938 0,0 -8.26838,6.45246 -8.26838,6.45246 v 0 c -6.69101,2.32566 -13.36587,4.78389 -20.33374,6.17508 -2.23542,0.38797 -4.4596,0.8474 -6.70625,1.16391 -4.26819,0.60131 -8.726,0.91896 -13.03322,1.04292 -6.28759,0.18095 -12.57114,-0.0887 -18.77002,-1.23191 -2.00689,-0.4232 -4.0334,-0.76213 -6.02065,-1.2696 -5.66054,-1.44548 -11.22702,-3.56766 -16.34144,-6.40191 -4.04477,-2.24149 -5.39019,-3.42497 -9.07735,-6.15805 -1.32463,-1.16124 -2.69029,-2.27728 -3.97387,-3.48373 -6.1267,-5.75848 -11.15603,-12.53655 -15.28586,-19.843041 -0.79552,-1.5 -1.63219,-2.9789 -2.38657,-4.50001 -3.69592,-7.452401 -6.391,-15.374711 -7.82258,-23.575391 -0.49303,-3.47894 -0.79758,-4.98809 -0.94239,-8.47085 -0.22646,-5.44685 0.4062,-10.88746 1.73438,-16.1692 0.8524,-3.03649 1.36889,-5.05805 2.40732,-8.03542 1.64401,-4.71364 3.67077,-9.3321 6.51332,-13.4542 0.70527,-0.90722 1.3814,-1.83787 2.1158,-2.72167 3.882,-4.67169 8.51189,-8.66118 13.28436,-12.38877 3.03227,-2.31711 6.07292,-4.59373 9.26557,-6.68861 5.35708,-3.51508 11.12229,-6.6645 16.59661,-9.8336 1.14688,-0.66393 2.30637,-1.30584 3.45956,-1.95876 7.00993,-3.77358 14.0969,-7.44418 21.51377,-10.36342 2.78504,-1.08098 4.89797,-1.93413 7.72969,-2.89971 5.04117,-1.71896 10.21018,-3.0748 15.4647,-3.95519 1.25448,-0.18374 2.50448,-0.40131 3.76345,-0.55123 6.01206,-0.71593 12.09295,-0.68719 18.05242,0.45401 3.00058,0.66045 3.86675,0.77814 6.79842,1.71553 4.26083,1.36238 8.27512,3.35395 12.02205,5.79126 0.89124,0.61465 1.80512,1.19769 2.67371,1.84395 4.29475,3.19544 7.96782,7.11817 11.04831,11.48632 3.7354,5.41046 7.27643,10.98235 9.7107,17.12068 2.34236,5.89715 4.65188,11.82379 6.24131,17.97823 0.26186,1.01564 0.54507,2.02601 0.78557,3.04692 1.12986,4.79626 1.83566,9.71471 1.8252,14.64783 -0.17032,2.93228 -0.12322,3.36966 -0.59798,6.3233 -0.77144,4.79937 -2.18608,9.47356 -3.71292,14.07777 -2.51661,6.9782 -5.21363,13.92206 -8.89169,20.38604 -0.58015,0.97523 -1.13561,1.96558 -1.74047,2.92569 -2.91212,4.622491 -6.38413,8.916981 -10.51229,12.508421 -1.35415,1.08333 -3.47049,2.854501 -4.97762,3.756941 -4.26089,2.55133 -8.57565,5.01245 -12.90299,7.44936 -1.25345,0.70588 -3.23322,1.57537 -4.62953,2.01529 -0.65782,0.20724 -1.34055,0.32498 -2.01082,0.48747 -1.46256,0.11448 -2.02912,0.26496 -3.461,-0.0197 -1.90509,-0.37878 -3.32475,-1.54048 -4.34006,-3.15437 -0.18824,-0.38802 -0.41143,-0.76095 -0.56472,-1.16405 -0.80847,-2.12605 -0.52519,-4.47759 -0.36681,-6.685 0.25963,-2.515191 0.59798,-5.027851 0.73004,-7.552781 0,0 11.73722,-5.84699 11.73722,-5.84699 z"
       inkscape:connector-curvature="0" />
    <path
       style="fill:#ffffff;stroke:none;stroke-width:0.26458332"
       id="path41"
       d="m -205.88224,40.622781 c 0.11119,1.80088 0.50336,3.57505 0.88435,5.33499 0.43615,2.204141 1.34068,4.216581 2.51818,6.113081 0.86243,1.23699 1.80964,2.44309 2.95578,3.43391 0.55737,0.48185 1.2318,0.92287 1.83561,1.3399 2.81952,1.73047 5.5901,1.68328 8.7836,1.5324 3.68507,-0.39779 7.20237,-1.68679 10.47378,-3.39555 0.77082,-0.40263 1.51812,-0.84877 2.27717,-1.27315 -2.66573,1.50631 -5.2712,3.12464 -7.9972,4.51893 -0.88967,0.45505 1.66519,-1.10624 2.47356,-1.6937 2.463,-1.78993 4.76586,-3.79557 6.88993,-5.97664 0.70972,-0.72877 1.37697,-1.49771 2.06546,-2.24657 2.69701,-3.112611 5.1828,-6.408351 7.39932,-9.880391 1.43608,-2.24954 1.80816,-2.98218 3.12315,-5.310441 2.3919,-4.44663 4.60831,-9.01493 6.283,-13.78645 0.31489,-0.8972 0.58016,-1.81105 0.87023,-2.71657 0.91097,-3.335 1.53161,-6.7693104 1.58118,-10.2349404 0.0291,-2.03805 -0.10402,-2.79908 -0.30406,-4.8299 -0.70898,-5.2311 -2.21277,-10.30263 -3.81618,-15.3168996 -1.71624,-5.16403 -3.85996,-10.17366 -6.21325,-15.076 -1.6505,-3.2739 -3.55782,-6.42292 -5.72,-9.38503 -1.23813,-1.69619 -2.12865,-2.7569 -3.44749,-4.38846 -2.35985,-2.80845 -4.80054,-5.56153 -7.46463,-8.08782 -1.90946,-1.81069 -2.36812,-2.13633 -4.392,-3.81956 -3.92081,-3.09618 -8.31179,-5.56374 -12.9751,-7.3555 -1.00462,-0.386 -2.034,-0.7042 -3.05099,-1.0563 -4.3565,-1.39244 -8.84405,-2.35471 -13.38018,-2.93027 -2.9739,-0.37733 -4.44,-0.44185 -7.42806,-0.65666 -6.40264,-0.33542 -12.83439,-0.12996 -19.21159,0.52382 -1.29886,0.13315 -2.5932,0.30719 -3.88979,0.46079 -6.7574,0.86301 -13.44235,2.31008 -19.93577,4.37448 -1.27051,0.40392 -2.52517,0.8561 -3.78775,1.28414 -4.86003,1.65701 -9.51997,3.81862 -14.04849,6.22652 -1.03139,0.54841 -4.07911,2.27805 -3.07174,1.68669 2.43805,-1.43123 4.90967,-2.80448 7.36451,-4.20672 -3.48158,2.07133 -6.82957,4.36275 -9.94693,6.95258 -1.79117,1.48807 -2.76244,2.41286 -4.48365,3.9854 -4.17463,3.94356 -7.86869,8.3492 -11.26337,12.97069 -2.95149,4.18259 -5.48124,8.67222 -7.19386,13.50858 -0.36327,1.02585 -0.65882,2.07444 -0.98823,3.11166 -1.16608,4.23567 -1.72093,8.6095896 -1.78183,12.9978496 -0.0429,3.09271004 0.0746,4.34153 0.23624,7.45809 0.43091,5.6069404 1.19618,11.1936004 2.40637,16.6875204 0.84357,3.82951 1.17472,4.78264 2.24505,8.55634 2.11764,7.053601 4.69198,14.006341 8.07937,20.557942 0.68837,1.33138 1.44957,2.62383 2.17435,3.93574 3.67757,6.1477 8.05419,11.9636 13.52812,16.63546 1.05887,0.90371 2.19462,1.71324 3.29193,2.56987 4.65342,3.34889 9.92404,5.6307 15.41998,7.19674 3.18275,0.9069 5.56925,1.30808 8.81798,1.95041 6.1221,0.99569 12.3301,1.18203 18.50316,0.60203 4.04893,-0.38043 5.707,-0.75002 9.71021,-1.44651 7.10519,-1.54129 14.0185,-3.85781 20.73665,-6.62031 4.84923,-1.994 6.88775,-2.98738 11.61729,-5.16024 0,0 -8.42143,6.68386 -8.42143,6.68386 v 0 c -2.8905,1.29161 -8.90363,3.99964 -11.71363,5.16379 -6.85956,2.84183 -13.94502,5.16484 -21.21435,6.70111 -4.12673,0.67492 -5.62753,0.99851 -9.8024,1.36733 -6.26974,0.55388 -12.55462,0.31545 -18.75779,-0.77908 -1.51898,-0.3022 -3.04674,-0.56321 -4.55694,-0.90659 -7.17942,-1.63244 -14.14421,-4.21306 -20.11647,-8.60408 -2.99709,-2.40649 -3.75594,-2.8723 -6.46771,-5.63061 -4.10949,-4.18002 -7.52353,-8.98145 -10.47676,-14.03032 -0.73594,-1.32869 -1.50555,-2.63927 -2.20781,-3.98606 -3.44132,-6.59977 -6.10204,-13.585431 -8.1997,-20.719151 -1.05651,-3.673431 -1.46159,-4.893871 -2.31702,-8.617641 -1.26499,-5.50658 -2.08217,-11.11047 -2.67875,-16.72531 -0.27233,-3.6493604 -0.56571,-7.3090104 -0.37733,-10.97265036 0.16928,-3.29187004 0.70341,-6.57069004 1.53221,-9.75805964 0.29902,-1.0555 0.55674,-2.12359 0.89706,-3.16651 1.60138,-4.90745 4.11775,-9.46038 6.95962,-13.74706 0.55289,-0.77834 1.08926,-1.56869 1.65867,-2.33503 2.88325,-3.88043 6.14994,-7.47844 9.57391,-10.88403 4.50732,-4.21096 9.05401,-8.12789 14.43359,-11.21805 9.81731,-5.6689 19.27,-11.61013 30.09901,-15.13619 3.24104,-1.04843 4.4113,-1.47235 7.73077,-2.35942 5.30255,-1.41701 10.71498,-2.40079 16.15323,-3.1208 1.30885,-0.14667 2.61538,-0.31578 3.92655,-0.44001 6.4346,-0.60968 12.9188,-0.78916 19.37242,-0.41213 7.15027,0.57658 14.3204,1.37135 21.14154,3.7295 1.04276,0.36639 2.0975,0.70033 3.1283,1.09918 4.779,1.84913 9.25356,4.38909 13.25012,7.60004 1.63529,1.37352 2.92298,2.41946 4.48726,3.87645 2.72288,2.53613 5.1652,5.3484 7.54232,8.205 1.27668,1.59482 2.27855,2.81012 3.4843,4.46259 2.1997,3.01469 4.16875,6.20444 5.85704,9.53249 2.38052,4.95029 4.52911,10.01963 6.26882,15.23304 1.65879,5.06939 3.24567,10.1933996 4.04202,15.4809796 0.23197,1.99899 0.40836,2.98838 0.39718,5.00450004 -0.0198,3.58005996 -0.72171,7.12622996 -1.60161,10.58044036 -0.28122,0.92973 -0.52897,1.87024 -0.84366,2.78918 -0.3159,0.92243 -0.68643,1.82536 -1.04688,2.7313 -1.53047,3.84669 -3.30579,7.58792 -5.24245,11.24625 -1.25284,2.2878 -1.69643,3.17345 -3.07272,5.38596 -2.19275,3.525041 -4.68185,6.853981 -7.32834,10.049411 -2.05271,2.31423 -4.12519,4.554611 -6.47867,6.572561 -5.28985,4.53571 -11.44169,7.77312 -17.53838,11.13615 -0.79218,0.41902 -1.5719,0.8625 -2.37655,1.25706 -3.43297,1.68338 -7.11556,2.87652 -10.94647,3.13103 -1.52135,0.0362 -2.41514,0.11048 -3.92272,-0.0575 -1.99441,-0.22218 -3.90999,-0.87214 -5.5889,-1.97333 -0.7872,-0.5685 -1.22921,-0.85463 -1.95154,-1.50978 -1.19709,-1.08575 -2.19038,-2.3741 -3.12569,-3.68436 -1.26695,-2.00858 -2.17886,-4.16359 -2.7409,-6.47718 -0.43465,-1.77042 -0.77488,-3.56008 -1.22187,-5.327001 0,0 11.64613,-6.09726 11.64613,-6.09726 z"
       inkscape:connector-curvature="0" />
    <path
       style="fill:#ffffff;stroke:none;stroke-width:0.26458332"
       id="path43"
       d="m -199.93158,44.226847 c -0.51207,2.37248 -1.05683,4.72678 -1.40726,7.1306 -0.19879,2.14156 -0.49257,4.43269 0.20753,6.52296 0.11421,0.34099 0.28544,0.66015 0.42816,0.99022 0.19894,0.31211 0.36239,0.64992 0.59682,0.93633 1.11135,1.35775 2.91153,2.1585 4.58544,2.52138 0.53945,0.11695 1.09155,0.16512 1.63733,0.24768 5.09405,0.24035 8.8054,-1.76037 13.13263,-4.13535 -2.60579,1.46852 -5.14264,3.06671 -7.81736,4.40557 -0.90721,0.45411 1.67844,-1.1409 2.49583,-1.74183 2.58615,-1.90129 5.04575,-3.99246 7.3558,-6.22059 0.79198,-0.76389 1.54819,-1.56403 2.32227,-2.34604 3.02061,-3.20041 5.82023,-6.61681 8.27187,-10.2744 1.5344,-2.28917 1.91608,-3.05282 3.28675,-5.44487 2.83235,-5.369197 5.19994,-10.981997 7.23205,-16.698907 1.77053,-5.04805 2.81861,-10.2851204 3.5186,-15.5754004 0.49698,-4.60909996 0.19784,-9.23327 -0.47964,-13.80289 -0.80137,-4.7641796 -2.3284,-9.3450796 -3.97006,-13.8728696 -1.87357,-4.74743 -4.06582,-9.37791 -6.65822,-13.7774 -0.56639,-0.96121 -1.17206,-1.89871 -1.75808,-2.84807 -2.49977,-3.94967 -5.41416,-7.62321 -8.74102,-10.90883 -1.99278,-1.96806 -3.43378,-3.15228 -5.55295,-4.98463 -3.98286,-3.27958 -8.25395,-6.1829 -12.82651,-8.57713 -2.98548,-1.56323 -4.08599,-1.9679 -7.19395,-3.30872 -5.23312,-2.02085 -10.69872,-3.44577 -16.25104,-4.25271 -3.63364,-0.52808 -4.87649,-0.53015 -8.54395,-0.7596 -5.88119,-0.18096 -11.77778,0.1515 -17.58461,1.12267 -3.8452,0.6431 -5.17932,1.05945 -8.96791,2.01057 -9.12118,2.37807 -17.72089,6.25808 -26.1909,10.3186 2.5447,-1.69279 -10.37237,5.71581 -7.81153,4.22934 2.04476,-1.1869 4.04412,-2.46235 6.16469,-3.50781 1.25058,-0.61654 -2.37465,1.46235 -3.54693,2.21724 -3.1732,2.04339 -3.68553,2.45767 -6.76697,4.64079 -4.34107,3.13734 -8.44346,6.60407 -12.1681,10.45601 -2.3152,2.39432 -3.17104,3.45703 -5.3565,5.98603 -4.50217,5.45903 -8.63141,11.24707 -11.85727,17.56013 -0.62554,1.2242 -1.17853,2.48414 -1.76779,3.72621 -2.5975,5.9152696 -4.30008,12.2182596 -4.72922,18.6788696 -0.0874,1.31586 -0.0711,2.63656 -0.10664,3.95484 0.14909,7.5761404 2.18163,14.9099304 5.03823,21.8847504 0.64743,1.58082 1.37969,3.125557 2.06953,4.688347 3.88872,8.08986 8.01443,16.12732 13.06285,23.56839 1.02212,1.50653 2.12363,2.95763 3.18544,4.43645 5.44114,7.16485 11.55638,13.89603 18.77373,19.31807 1.41477,1.06285 2.90892,2.01568 4.36338,3.02352 5.7525,3.80081 11.91545,6.56274 18.77099,7.59939 4.78557,0.72365 6.07295,0.47813 10.94173,0.36565 1.97627,-0.24334 3.96494,-0.40125 5.9288,-0.73004 4.11389,-0.68874 8.55657,-1.84222 12.54411,-3.03492 3.71278,-1.11052 9.03683,-2.95181 12.64974,-4.3353 2.07465,-0.79445 4.11757,-1.6694 6.17635,-2.5041 5.94593,-2.55271 11.73567,-5.45474 17.39265,-8.59305 1.96033,-1.08752 3.92546,-2.1696 5.83581,-3.34268 1.23276,-0.75701 -2.53438,1.39568 -3.80157,2.09352 0,0 10.03222,-3.86427 10.03222,-3.86427 v 0 c -12.33215,7.17333 -24.52305,14.75198 -37.74533,20.22395 -2.05749,0.81715 -4.10072,1.67115 -6.17247,2.45143 -8.18057,3.08103 -16.91763,5.92785 -25.55845,7.349 -2.02773,0.3335 -4.08068,0.48962 -6.12102,0.734433 -5.02348,0.0773 -6.31287,0.32204 -11.23919,-0.470173 -7.03967,-1.13208 -13.13798,-3.99059 -18.98784,-7.98748 -3.71075,-2.65456 -5.16963,-3.56435 -8.63203,-6.58785 -5.47843,-4.78398 -10.28906,-10.29609 -14.64514,-16.10436 -2.91203,-4.08955 -3.56625,-4.87103 -6.21882,-9.14828 -3.79196,-6.11454 -7.06119,-12.538 -10.25942,-18.97602 -1.77837,-3.85786 -2.56619,-5.36542 -4.03003,-9.324527 -2.07536,-5.61301 -3.43736,-11.47397 -3.7376,-17.46245 0.004,-1.34002 -0.0547,-2.68162 0.0104,-4.02006 0.32125,-6.6080104 2.07228,-13.0351104 4.67661,-19.0914604 1.6255,-3.4573496 1.92231,-4.2585696 3.82172,-7.6059996 2.79528,-4.92627 6.09848,-9.52875 9.63815,-13.94367 2.19594,-2.60569 2.95606,-3.58239 5.28836,-6.0543 3.70521,-3.927 7.79707,-7.46983 12.15212,-10.65871 1.11353,-0.80363 2.21359,-1.62626 3.34059,-2.41089 6.57553,-4.57794 13.56355,-8.41886 20.5191,-12.40543 1.26913,-0.7274 2.55241,-1.43039 3.84499,-2.11524 1.31514,-0.69682 2.65148,-1.35286 3.97721,-2.02929 3.22159,-1.51982 4.94671,-2.36874 8.22834,-3.7752 5.86623,-2.51418 11.88453,-4.68223 18.05549,-6.3232 1.51835,-0.36676 3.02727,-0.77505 4.55506,-1.10028 7.32398,-1.55911 14.83703,-2.15678 22.31517,-1.82936 3.68134,0.26316 4.99933,0.28171 8.64714,0.84389 5.62934,0.86756 11.14375,2.41541 16.46754,4.42468 1.25259,0.53816 2.52204,1.03867 3.75776,1.61449 5.94335,2.76945 11.49755,6.34237 16.55221,10.51062 2.28127,1.97366 3.48041,2.94908 5.63483,5.06012 3.40388,3.33533 6.45368,7.01427 8.98867,11.05488 3.30691,5.35147 6.42512,10.83827 8.79733,16.67846 1.76735,4.55969 3.33054,9.19564 4.24641,14.01179 0.29862,1.88087 0.43825,2.51776 0.58609,4.4178 0.25278,3.2487396 0.12206,6.5145296 -0.0789,9.76140964 -0.70349,5.44150996 -1.72732,10.67756996 -3.55735,15.87078036 -0.32035,0.93795 -0.61535,1.88495 -0.96107,2.81385 -0.43751,1.17551 -1.81262,4.44069 -2.2989,5.57665 -0.67786,1.58349 -1.80037,4.15669 -2.54271,5.70133 -0.46015,0.95747 -0.95748,1.89663 -1.43621,2.84494 -0.52019,0.93992 -1.01633,1.893547 -1.56055,2.819747 -2.79422,4.75539 -6.19745,9.13218 -9.91294,13.19873 -0.76063,0.79741 -1.50142,1.61424 -2.2819,2.39225 -1.31155,1.30739 -3.36299,3.17428 -4.78149,4.37014 -5.42571,4.57413 -11.33179,8.02944 -17.7458,11.31484 -1.89706,0.99152 -3.0839,1.68341 -5.07552,2.44866 -2.85334,1.09636 -5.86848,1.63272 -8.92014,1.3059 -0.59406,-0.11888 -1.1974,-0.19826 -1.78217,-0.35664 -1.95745,-0.53018 -3.90398,-1.57282 -5.18792,-3.17864 -0.27392,-0.34258 -0.47394,-0.73821 -0.71091,-1.10731 -0.46001,-1.05901 -0.62852,-1.2889 -0.84858,-2.43884 -0.36195,-1.89147 -0.12508,-3.83841 0.0153,-5.73687 0.14478,-1.41142 0.32355,-2.80574 0.58296,-4.20134 0.13092,-0.7043 0.29227,-1.33227 0.38236,-2.03942 0.0279,-0.2186 0.0306,-0.43967 0.046,-0.6595 0,0 11.75715,-5.8437 11.75715,-5.8437 z"
       inkscape:connector-curvature="0" />
    <path
       style="fill:#ffffff;stroke:none;stroke-width:0.26458332"
       id="path45"
       d="m -217.13422,57.120962 c -0.0274,2.11497 0.48309,4.17382 1.06793,6.18987 0.68122,2.34834 1.61272,4.65793 3.26198,6.50584 0.33496,0.3753 0.71947,0.70326 1.07921,1.05489 0.40958,0.2753 0.79084,0.59832 1.22873,0.8259 2.37269,1.2331 5.1703,0.89189 7.623,0.10379 0.90632,-0.29121 1.77181,-0.69683 2.65771,-1.04524 0.9548,-0.50371 3.80155,-2.04698 2.86441,-1.51112 -2.32617,1.33013 -4.55393,2.8761 -7.03248,3.89446 -1.22854,0.50476 2.18675,-1.51113 3.2306,-2.33239 2.1121,-1.66171 4.3907,-3.75816 6.24107,-5.7028 0.97646,-1.0262 1.87748,-2.12163 2.81622,-3.18244 3.47926,-4.18238 6.42463,-8.8005 8.62354,-13.78265 1.38367,-3.13507 1.57191,-4.05548 2.58999,-7.30924 1.55761,-5.87414 2.23873,-11.953852 2.26881,-18.025142 0.006,-1.15278 -0.047,-2.30511 -0.0704,-3.45767 -0.23948,-5.59446 -1.30098,-11.1393704 -3.1237,-16.4344604 -0.36252,-1.05315 -0.78787,-2.08359996 -1.1818,-3.12540996 -1.73012,-4.09818004 -3.63759,-8.13335004 -5.78218,-12.03276964 -1.39388,-2.53445 -2.00085,-3.43014 -3.53329,-5.88326 -3.7072,-5.83624 -8.25716,-11.04964 -12.81795,-16.22012 -4.46612,-5.17061 -9.53275,-9.76548 -14.76582,-14.13964 -3.63197,-2.90689 -7.46478,-5.59642 -11.6402,-7.67202 -2.64117,-1.31292 -3.6362,-1.59918 -6.39803,-2.62484 -4.5746,-1.4756 -9.34759,-2.17583 -14.14898,-2.23099 -3.07187,-0.0353 -4.35862,0.14593 -7.43615,0.40122 -6.65086,0.83109 -13.11414,2.7395 -19.23963,5.4423 -1.29449,0.57118 -2.55823,1.20967 -3.83734,1.8145 -1.25146,0.68588 -4.99548,2.76209 -3.75438,2.05764 2.0172,-1.14497 3.92354,-2.53226 6.08285,-3.37929 1.3933,-0.54655 -2.5199,1.61658 -3.75269,2.46524 -2.52384,1.73743 -4.98982,3.59602 -7.36532,5.53101 -1.16769,0.95116 -2.2975,1.9479 -3.44625,2.92185 -6.28735,5.43533 -11.62814,11.83575 -16.67127,18.41095 -3.34883,4.42992 -6.48945,9.03919 -9.0673,13.96598 -0.44427,0.84909 -0.85016,1.7177096 -1.27524,2.5765596 -1.53868,3.25998 -2.79512,6.64661 -3.62747,10.15644 -0.55753,2.35096 -0.61147,2.9764 -0.99655,5.37917 -0.55608,5.0159004 -0.52898,10.1202604 -0.0165,15.1418604 0.11549,1.13154 0.28834,2.2565 0.4325,3.38475 0.86272,6.37761 2.65614,12.564532 4.95749,18.561992 0.49033,1.27785 1.02611,2.53779 1.53917,3.80669 2.19458,5.16927 4.62722,10.23413 7.42807,15.10371 1.89294,3.29109 2.48794,4.13569 4.53973,7.33945 3.25574,4.76414 6.78329,9.37948 10.94433,13.39715 2.89241,2.79274 3.64474,3.23395 6.82945,5.69602 5.20552,3.54534 10.98643,6.21317 17.103,7.74825 4.39812,1.1038 5.80224,1.11767 10.32004,1.64588 7.51314,0.50306 15.07168,-0.20119 22.4103,-1.86907 4.83829,-1.09962 7.09578,-1.96115 11.82133,-3.50734 8.26222,-2.98406 16.35123,-6.41725 24.41207,-9.90056 0,0 -8.36256,6.60523 -8.36256,6.60523 v 0 c -8.12241,3.39612 -16.19888,6.92255 -24.50595,9.85318 -4.88306,1.562718 -7.01009,2.367718 -12.00942,3.476128 -7.47879,1.65815 -15.16477,2.32645 -22.80934,1.74893 -4.46686,-0.55246 -6.18458,-0.62073 -10.54308,-1.72869 -6.25996,-1.59132 -12.20368,-4.289228 -17.50074,-7.980008 -1.20296,-0.9326 -2.44249,-1.81985 -3.60888,-2.79781 -5.65519,-4.74161 -10.33519,-10.47847 -14.42533,-16.5935 -0.79169,-1.2254 -1.60525,-2.43695 -2.37507,-3.67621 -3.74958,-6.0361 -7.00629,-12.36421 -9.78194,-18.90476 -2.97889,-7.26951 -5.72276,-14.67932 -6.88805,-22.489242 -0.16851,-1.13875 -0.36618,-2.27356 -0.50553,-3.41624 -0.61772,-5.06519 -0.78455,-10.21367 -0.29974,-15.29532 0.12695,-0.9292 0.22849,-1.86223 0.38083,-2.7876104 0.74811,-4.54432 2.14301,-8.95413996 4.12615,-13.11066 0.43646,-0.88317 0.85349,-1.7762 1.30939,-2.64949 2.63406,-5.0456396 5.85417,-9.7692596 9.32242,-14.2732396 5.10261,-6.66675 10.47878,-13.18441 16.81162,-18.73251 3.09642,-2.6629 3.81091,-3.35068 7.05926,-5.84844 7.69785,-5.91911 16.18123,-10.7261 24.77922,-15.20882 1.30437,-0.5986 2.59332,-1.232 3.91311,-1.79578 6.23785,-2.66465 12.81405,-4.4838 19.56015,-5.24199 1.29051,-0.0967 2.57853,-0.23579 3.87151,-0.28998 6.13535,-0.25714 12.2897,0.5422 18.12476,2.46413 1.10193,0.42398 2.22069,0.80656 3.30578,1.27196 5.43103,2.32937 10.3771,5.64985 14.95729,9.35277 5.27585,4.42211 10.39454,9.05467 14.91404,14.2628 4.57447,5.23866 9.04924,10.58868 12.8713,16.41216 1.52946,2.44684 2.18454,3.42794 3.59246,5.94788 2.19453,3.92784 4.14207,7.99802 5.86571,12.1527396 0.40772,1.0619 0.84854,2.11168 1.22315,3.18571 1.88211,5.396 2.97171,11.04589 3.23171,16.7540404 0.0291,1.17422 0.0938,2.34811 0.0874,3.52268 -0.034,6.18144 -0.73582,12.38137 -2.26866,18.371922 -0.94654,3.14406 -1.24439,4.45109 -2.5432,7.48346 -2.18012,5.08998 -5.14786,9.80693 -8.61316,14.11418 -0.92767,1.08576 -1.81815,2.20444 -2.78302,3.25729 -1.69044,1.84459 -4.12768,4.19872 -6.05546,5.80806 -5.81389,4.85353 -12.60987,8.41669 -19.41113,11.69134 -0.96345,0.33414 -1.90576,0.73696 -2.89034,1.00244 -2.85465,0.76974 -5.94145,0.84646 -8.54938,-0.71433 -0.47968,-0.28708 -0.89368,-0.67182 -1.34053,-1.00772 -0.3834,-0.39643 -0.7885,-0.77295 -1.15019,-1.18927 -1.72034,-1.98019 -2.8249,-4.36462 -3.56773,-6.86213 -0.65605,-2.02268 -1.24335,-4.07315 -1.56363,-6.17938 0,0 11.65223,-6.1208 11.65223,-6.1208 z"
       inkscape:connector-curvature="0" />
    <path
       style="fill:#ffffff;stroke:none;stroke-width:0.26458332"
       d="m 128.61491,245.57328 c 1.03527,5.95837 0.17327,20.15103 9.69082,16.02455 3.98476,-1.42772 7.7771,-4.23868 1.88575,-0.65713 -9.05155,5.29213 1.3236,-0.7505 5.22832,-6.80424 12.32848,-16.80674 21.03654,-37.28662 20.94921,-58.37729 -0.95219,-14.40369 -9.92405,-26.91273 -19.44338,-37.13722 -15.36295,-15.85231 -37.63338,-27.69333 -60.225645,-23.45453 -15.323526,2.51701 -29.437312,9.51577 -42.736721,17.2615 2.279806,-1.94702 8.786408,-4.55648 2.689415,-1.23011 -16.277479,10.08666 -30.647578,25.61892 -33.653457,45.14845 -3.1846437,18.36141 0.232824,38.54178 12.675555,52.95623 15.345843,20.1204 40.992906,28.57171 65.270748,31.2266 20.612315,1.97861 42.550795,-0.46511 60.244055,-12.00744 -5.4904,4.66355 -11.14323,9.13419 -17.86474,11.92137 -20.95869,9.3153 -45.079795,8.81107 -67.10702,3.93993 C 44.924334,279.91591 24.083057,268.99312 12.049281,250.29596 0.38563216,233.47993 -1.2748978,210.95672 4.8153122,191.76531 11.61709,170.7456 30.982676,157.57284 49.335911,147.21839 69.039069,135.91295 91.410615,124.53921 114.8584,128.34034 c 24.17629,4.86475 44.93942,22.09877 56.72848,43.42252 8.21063,13.43872 6.38537,30.14419 1.44007,44.39132 -5.28479,15.65977 -12.63242,31.66781 -25.54661,42.48109 -7.75352,4.089 -17.7896,14.06463 -26.53787,7.04794 -3.23381,-3.76513 -6.28059,-11.92595 -5.17528,-18.70822 3.55794,-0.3889 9.28979,-4.94936 12.84773,-5.33866 z"
       id="logo-circle"
       inkscape:connector-curvature="0"
       sodipodi:nodetypes="cccccccccccccccccccccccccc"
       inkscape:label="#path51" />
  </g>
</svg>
